%TF.GenerationSoftware,Altium Limited,Altium Designer,25.1.2 (22)*%
G04 Layer_Physical_Order=4*
G04 Layer_Color=16711680*
%FSLAX45Y45*%
%MOMM*%
%TF.SameCoordinates,50AF8CB0-8788-4631-97D4-B92DF93AA5B5*%
%TF.FilePolarity,Positive*%
%TF.FileFunction,Copper,L4,Bot,Signal*%
%TF.Part,Single*%
G01*
G75*
%TA.AperFunction,NonConductor*%
%ADD10C,0.30000*%
%TA.AperFunction,ComponentPad*%
%ADD23R,1.50000X1.50000*%
%ADD24C,1.50000*%
%ADD25C,1.20000*%
%ADD26R,1.50000X1.50000*%
%ADD27C,0.70000*%
%ADD28C,1.10000*%
%ADD29R,1.56000X1.56000*%
%ADD30C,1.56000*%
%ADD31C,1.80000*%
%ADD32R,1.80000X1.80000*%
%ADD33C,1.50800*%
%ADD34R,1.50800X1.50800*%
%ADD35C,2.75000*%
%ADD36R,1.80000X1.80000*%
D10*
X14298599Y12332800D02*
G03*
X14248599Y12382800I-50000J0D01*
G01*
D02*
G03*
X14198599Y12332800I0J-50000D01*
G01*
Y12152800D02*
G03*
X14248599Y12102800I50000J0D01*
G01*
D02*
G03*
X14298599Y12152800I0J50000D01*
G01*
X15468600Y12332800D02*
G03*
X15418600Y12382800I-50000J0D01*
G01*
D02*
G03*
X15368600Y12332800I0J-50000D01*
G01*
Y12152800D02*
G03*
X15418600Y12102800I50000J0D01*
G01*
D02*
G03*
X15468600Y12152800I0J50000D01*
G01*
X14298599D02*
Y12332800D01*
X14198599Y12152800D02*
Y12332800D01*
X15468600Y12152800D02*
Y12332800D01*
X15368600Y12152800D02*
Y12332800D01*
D23*
X15265401Y8051800D02*
D03*
X5588000Y12496800D02*
D03*
X5245100D02*
D03*
X14427200Y8686800D02*
D03*
D24*
X15265401Y8305800D02*
D03*
X5588000Y11480800D02*
D03*
Y11734800D02*
D03*
Y11988800D02*
D03*
Y12242800D02*
D03*
X5245100Y11480800D02*
D03*
Y11734800D02*
D03*
Y11988800D02*
D03*
Y12242800D02*
D03*
X14643100Y4991100D02*
D03*
X15265401Y4978400D02*
D03*
X13741400Y12395200D02*
D03*
X13487399D02*
D03*
X13233400D02*
D03*
X12979401D02*
D03*
X12725400D02*
D03*
X12471400D02*
D03*
X12217400D02*
D03*
X11684000D02*
D03*
X11430000D02*
D03*
X11176000D02*
D03*
X10922000D02*
D03*
X10668000D02*
D03*
X10414000D02*
D03*
X10160000D02*
D03*
X9575800D02*
D03*
X9321800D02*
D03*
X9067800D02*
D03*
X8813800D02*
D03*
X8559800D02*
D03*
X8305800D02*
D03*
X8051800D02*
D03*
X7518400D02*
D03*
X7264400D02*
D03*
X7010400D02*
D03*
X6756400D02*
D03*
X6502400D02*
D03*
X6248400D02*
D03*
X5994400D02*
D03*
X14820900Y7366000D02*
D03*
X15074899D02*
D03*
X14427200Y8432800D02*
D03*
Y8178800D02*
D03*
Y7924800D02*
D03*
D25*
X13347701Y12026900D02*
D03*
X12839700D02*
D03*
Y11620500D02*
D03*
X13347701D02*
D03*
X6057900Y12026900D02*
D03*
X6565900D02*
D03*
X6057900Y11620500D02*
D03*
X6565900D02*
D03*
X10820400Y12039600D02*
D03*
X11328400D02*
D03*
X10820400Y11633200D02*
D03*
X11328400D02*
D03*
X14566901Y5537200D02*
D03*
Y6045200D02*
D03*
Y6451600D02*
D03*
Y6959600D02*
D03*
X15024100Y5537200D02*
D03*
Y6045200D02*
D03*
Y6451600D02*
D03*
Y6959600D02*
D03*
X8534400Y12039600D02*
D03*
X9042400D02*
D03*
X8534400Y11633200D02*
D03*
X9042400D02*
D03*
D26*
X14389101Y4991100D02*
D03*
X15011400Y4978400D02*
D03*
X13995399Y12395200D02*
D03*
X11938000D02*
D03*
X9829800D02*
D03*
X7772400D02*
D03*
X14566901Y7366000D02*
D03*
D27*
X14248599Y12242800D02*
D03*
X15418600D02*
D03*
D28*
X14608600D02*
D03*
X15058600D02*
D03*
D29*
X11976100Y5549900D02*
D03*
D30*
Y5803900D02*
D03*
Y10121900D02*
D03*
Y6057900D02*
D03*
Y6311900D02*
D03*
Y6565900D02*
D03*
Y6819900D02*
D03*
Y7073900D02*
D03*
Y7327900D02*
D03*
Y7581900D02*
D03*
Y7835900D02*
D03*
Y8089900D02*
D03*
Y8343900D02*
D03*
Y8597900D02*
D03*
Y8851900D02*
D03*
Y9105900D02*
D03*
Y9359900D02*
D03*
Y9613900D02*
D03*
Y9867900D02*
D03*
X9436100Y5549900D02*
D03*
Y5803900D02*
D03*
Y6057900D02*
D03*
Y6311900D02*
D03*
Y6565900D02*
D03*
Y6819900D02*
D03*
Y7073900D02*
D03*
Y7327900D02*
D03*
Y7581900D02*
D03*
Y7835900D02*
D03*
Y8089900D02*
D03*
Y8343900D02*
D03*
Y8597900D02*
D03*
Y8851900D02*
D03*
Y9105900D02*
D03*
Y9359900D02*
D03*
Y9613900D02*
D03*
Y9867900D02*
D03*
Y10121900D02*
D03*
D31*
X12407900Y5207000D02*
D03*
Y5461000D02*
D03*
Y5715000D02*
D03*
Y5969000D02*
D03*
Y6223000D02*
D03*
Y6477000D02*
D03*
Y6731000D02*
D03*
Y6985000D02*
D03*
Y7239000D02*
D03*
Y7493000D02*
D03*
Y7747000D02*
D03*
Y8001000D02*
D03*
Y8255000D02*
D03*
Y8509000D02*
D03*
Y8763000D02*
D03*
X13931900D02*
D03*
Y8509000D02*
D03*
Y8255000D02*
D03*
Y8001000D02*
D03*
Y7747000D02*
D03*
Y7493000D02*
D03*
Y7239000D02*
D03*
Y6985000D02*
D03*
Y6731000D02*
D03*
Y6477000D02*
D03*
Y6223000D02*
D03*
Y5969000D02*
D03*
Y5715000D02*
D03*
Y5461000D02*
D03*
X8674100Y10178300D02*
D03*
X2971800D02*
D03*
D32*
X13931900Y5207000D02*
D03*
D33*
X4131500Y12266300D02*
D03*
X3881500D02*
D03*
X4381500D02*
D03*
X3631500D02*
D03*
X4131500Y11633200D02*
D03*
X3881500D02*
D03*
X4381500D02*
D03*
X3631500D02*
D03*
X3530600Y5085700D02*
D03*
Y5339700D02*
D03*
X3784600Y5085700D02*
D03*
Y5339700D02*
D03*
X4038600Y5085700D02*
D03*
Y5339700D02*
D03*
X4292600Y5085700D02*
D03*
Y5339700D02*
D03*
X4546600Y5085700D02*
D03*
Y5339700D02*
D03*
X4800600Y5085700D02*
D03*
Y5339700D02*
D03*
X5054600Y5085700D02*
D03*
Y5339700D02*
D03*
X5308600Y5085700D02*
D03*
Y5339700D02*
D03*
X5562600Y5085700D02*
D03*
Y5339700D02*
D03*
X5816600Y5085700D02*
D03*
Y5339700D02*
D03*
X6070600Y5085700D02*
D03*
Y5339700D02*
D03*
X6324600Y5085700D02*
D03*
Y5339700D02*
D03*
X6578600Y5085700D02*
D03*
Y5339700D02*
D03*
X6832600Y5085700D02*
D03*
Y5339700D02*
D03*
X7086600Y5085700D02*
D03*
Y5339700D02*
D03*
X7340600Y5085700D02*
D03*
Y5339700D02*
D03*
X7594600Y5085700D02*
D03*
Y5339700D02*
D03*
X7848600Y5085700D02*
D03*
Y5339700D02*
D03*
X8102600Y5085700D02*
D03*
Y5339700D02*
D03*
X8356600Y5085700D02*
D03*
D34*
X4631500Y12266300D02*
D03*
Y11633200D02*
D03*
X8356600Y5339700D02*
D03*
D35*
X3043600Y5212700D02*
D03*
Y7512700D02*
D03*
X8843600Y5212700D02*
D03*
Y7512700D02*
D03*
D36*
X8674100Y10528300D02*
D03*
X2971800D02*
D03*
%TF.MD5,8f673e415819e35ea728c7f50716fa60*%
M02*
