%TF.GenerationSoftware,Altium Limited,Altium Designer,25.1.2 (22)*%
G04 Layer_Physical_Order=3*
G04 Layer_Color=128*
%FSLAX45Y45*%
%MOMM*%
%TF.SameCoordinates,50AF8CB0-8788-4631-97D4-B92DF93AA5B5*%
%TF.FilePolarity,Negative*%
%TF.FileFunction,Copper,L3,Inr,Plane*%
%TF.Part,Single*%
G01*
G75*
%TA.AperFunction,NonConductor*%
%ADD37C,1.01600*%
%TA.AperFunction,ComponentPad*%
%ADD39C,1.91600*%
%ADD40C,1.71600*%
%ADD41C,2.11600*%
%ADD42C,2.05600*%
%ADD44C,2.01600*%
%ADD46C,3.76600*%
G04:AMPARAMS|DCode=47|XSize=2.724mm|YSize=2.724mm|CornerRadius=0mm|HoleSize=0mm|Usage=FLASHONLY|Rotation=0.000|XOffset=0mm|YOffset=0mm|HoleType=Round|Shape=Relief|Width=0.254mm|Gap=0.254mm|Entries=4|*
%AMTHD47*
7,0,0,2.72400,2.21600,0.25400,45*
%
%ADD47THD47*%
%ADD48C,2.21600*%
G04:AMPARAMS|DCode=49|XSize=2.224mm|YSize=2.224mm|CornerRadius=0mm|HoleSize=0mm|Usage=FLASHONLY|Rotation=0.000|XOffset=0mm|YOffset=0mm|HoleType=Round|Shape=Relief|Width=0.254mm|Gap=0.254mm|Entries=4|*
%AMTHD49*
7,0,0,2.22400,1.71600,0.25400,45*
%
%ADD49THD49*%
D37*
X2540000Y4775200D02*
Y12700000D01*
X15595599D01*
Y4775200D02*
Y12700000D01*
X2540000Y4775200D02*
X15595599D01*
D39*
X15265401Y8051800D02*
D03*
Y8305800D02*
D03*
X5588000Y11480800D02*
D03*
Y11734800D02*
D03*
Y11988800D02*
D03*
Y12242800D02*
D03*
Y12496800D02*
D03*
X5245100Y11480800D02*
D03*
Y11734800D02*
D03*
Y11988800D02*
D03*
Y12242800D02*
D03*
Y12496800D02*
D03*
X14389101Y4991100D02*
D03*
X14643100D02*
D03*
X15011400Y4978400D02*
D03*
X15265401D02*
D03*
X12407900Y5207000D02*
D03*
Y5461000D02*
D03*
Y5715000D02*
D03*
Y5969000D02*
D03*
Y6223000D02*
D03*
Y6477000D02*
D03*
Y6731000D02*
D03*
Y6985000D02*
D03*
Y7239000D02*
D03*
Y7493000D02*
D03*
Y7747000D02*
D03*
Y8001000D02*
D03*
Y8255000D02*
D03*
Y8509000D02*
D03*
Y8763000D02*
D03*
X13931900D02*
D03*
Y8509000D02*
D03*
Y8255000D02*
D03*
Y8001000D02*
D03*
Y7747000D02*
D03*
Y7493000D02*
D03*
Y7239000D02*
D03*
Y6985000D02*
D03*
Y6731000D02*
D03*
Y6477000D02*
D03*
Y6223000D02*
D03*
Y5969000D02*
D03*
Y5715000D02*
D03*
Y5461000D02*
D03*
Y5207000D02*
D03*
X13995399Y12395200D02*
D03*
X13741400D02*
D03*
X13487399D02*
D03*
X13233400D02*
D03*
X12979401D02*
D03*
X12725400D02*
D03*
X12471400D02*
D03*
X12217400D02*
D03*
X11938000D02*
D03*
X11684000D02*
D03*
X11430000D02*
D03*
X11176000D02*
D03*
X10922000D02*
D03*
X10668000D02*
D03*
X10414000D02*
D03*
X10160000D02*
D03*
X9829800D02*
D03*
X9575800D02*
D03*
X9321800D02*
D03*
X9067800D02*
D03*
X8813800D02*
D03*
X8559800D02*
D03*
X8305800D02*
D03*
X8051800D02*
D03*
X7772400D02*
D03*
X7518400D02*
D03*
X7264400D02*
D03*
X7010400D02*
D03*
X6756400D02*
D03*
X6502400D02*
D03*
X6248400D02*
D03*
X5994400D02*
D03*
X14566901Y7366000D02*
D03*
X14820900D02*
D03*
X15074899D02*
D03*
X14427200Y8686800D02*
D03*
Y8432800D02*
D03*
Y8178800D02*
D03*
Y7924800D02*
D03*
D40*
X13347701Y12026900D02*
D03*
X12839700D02*
D03*
Y11620500D02*
D03*
X13347701D02*
D03*
X6565900Y12026900D02*
D03*
Y11620500D02*
D03*
X10820400Y12039600D02*
D03*
X11328400D02*
D03*
X10820400Y11633200D02*
D03*
X11328400D02*
D03*
X14566901Y5537200D02*
D03*
Y6045200D02*
D03*
Y6451600D02*
D03*
Y6959600D02*
D03*
X15024100Y5537200D02*
D03*
Y6045200D02*
D03*
Y6451600D02*
D03*
Y6959600D02*
D03*
X14248599Y12242800D02*
D03*
X15418600D02*
D03*
X8534400Y12039600D02*
D03*
X9042400D02*
D03*
X8534400Y11633200D02*
D03*
X9042400D02*
D03*
D41*
X14608600Y12242800D02*
D03*
X15058600D02*
D03*
D42*
X11976100Y5549900D02*
D03*
Y5803900D02*
D03*
Y10121900D02*
D03*
Y6057900D02*
D03*
Y6311900D02*
D03*
Y6565900D02*
D03*
Y6819900D02*
D03*
Y7073900D02*
D03*
Y7327900D02*
D03*
Y7581900D02*
D03*
Y7835900D02*
D03*
Y8089900D02*
D03*
Y8343900D02*
D03*
Y8597900D02*
D03*
Y8851900D02*
D03*
Y9105900D02*
D03*
Y9359900D02*
D03*
Y9613900D02*
D03*
Y9867900D02*
D03*
X9436100Y5549900D02*
D03*
Y5803900D02*
D03*
Y6057900D02*
D03*
Y6311900D02*
D03*
Y6565900D02*
D03*
Y6819900D02*
D03*
Y7073900D02*
D03*
Y7327900D02*
D03*
Y7581900D02*
D03*
Y7835900D02*
D03*
Y8089900D02*
D03*
Y8343900D02*
D03*
Y8597900D02*
D03*
Y8851900D02*
D03*
Y9105900D02*
D03*
Y9359900D02*
D03*
Y9613900D02*
D03*
Y9867900D02*
D03*
Y10121900D02*
D03*
D44*
X4131500Y12266300D02*
D03*
X3881500D02*
D03*
X4381500D02*
D03*
X4631500D02*
D03*
X3631500D02*
D03*
X4131500Y11633200D02*
D03*
X3881500D02*
D03*
X4381500D02*
D03*
X4631500D02*
D03*
X3631500D02*
D03*
X3530600Y5085700D02*
D03*
Y5339700D02*
D03*
X3784600Y5085700D02*
D03*
Y5339700D02*
D03*
X4038600Y5085700D02*
D03*
Y5339700D02*
D03*
X4292600Y5085700D02*
D03*
Y5339700D02*
D03*
X4546600Y5085700D02*
D03*
Y5339700D02*
D03*
X4800600Y5085700D02*
D03*
Y5339700D02*
D03*
X5054600Y5085700D02*
D03*
Y5339700D02*
D03*
X5308600Y5085700D02*
D03*
Y5339700D02*
D03*
X5562600Y5085700D02*
D03*
Y5339700D02*
D03*
X5816600Y5085700D02*
D03*
Y5339700D02*
D03*
X6070600Y5085700D02*
D03*
Y5339700D02*
D03*
X6324600Y5085700D02*
D03*
Y5339700D02*
D03*
X6578600Y5085700D02*
D03*
Y5339700D02*
D03*
X6832600Y5085700D02*
D03*
Y5339700D02*
D03*
X7086600Y5085700D02*
D03*
Y5339700D02*
D03*
X7340600Y5085700D02*
D03*
Y5339700D02*
D03*
X7594600Y5085700D02*
D03*
Y5339700D02*
D03*
X7848600Y5085700D02*
D03*
Y5339700D02*
D03*
X8102600Y5085700D02*
D03*
Y5339700D02*
D03*
X8356600Y5085700D02*
D03*
Y5339700D02*
D03*
D46*
X3043600Y5212700D02*
D03*
Y7512700D02*
D03*
X8843600Y5212700D02*
D03*
Y7512700D02*
D03*
D47*
X8674100Y10528300D02*
D03*
D48*
Y10178300D02*
D03*
X2971800D02*
D03*
Y10528300D02*
D03*
D49*
X6057900Y12026900D02*
D03*
Y11620500D02*
D03*
%TF.MD5,ad7e6b27813afd84eb275d9044b184b7*%
M02*
