M48
;Layer_Color=9474304
;FILE_FORMAT=4:2
METRIC,LZ
;TYPE=PLATED
T01F00S00C0.70
T02F00S00C0.90
T03F00S00C1.00
T04F00S00C1.04
T05F00S00C1.20
;TYPE=NON_PLATED
T06F00S00C0.70
T07F00S00C1.10
T08F00S00C2.75
%
T01
X014567Y005537
X015024
Y006045
Y006452
X014567
Y006045
Y00696
X015024
X006566Y011621
X006058
X008534Y011633
X009042
X01082
X011328
X01284Y011621
X013348
Y012027
X01284
X011328Y01204
X01082
X009042
X008534
X006566Y012027
X006058
T02
X012408Y005207
Y005461
Y005715
Y005969
Y006223
Y006477
Y006731
Y006985
Y007239
Y007493
Y007747
X013932
Y007493
Y007239
Y006985
Y006731
Y006477
Y006223
Y005969
Y005715
Y005461
Y005207
X014389Y004991
X014643
X015011Y004978
X015265
X015075Y007366
X014821
X014567
X014427Y007925
X005588Y011481
Y011735
X005245
Y011481
X012408Y008763
Y008509
Y008255
Y008001
X013932
Y008255
Y008509
Y008763
X014427Y008687
Y008433
Y008179
X015265Y008052
Y008306
X013995Y012395
X013741
X013487
X013233
X012979
X012725
X012471
X012217
X011938
X011684
X01143
X011176
X010922
X010668
X010414
X01016
X00983
X009576
X009322
X009068
X008814
X00856
X008306
X008052
X007772
X007518
X007264
X00701
X006756
X006502
X006248
X005994
X005588Y012497
Y012243
Y011989
X005245
Y012243
Y012497
T03
X008103Y005086
Y00534
X008357
Y005086
X007849
X007595
X007341
X007087
X006833
X006579
X006325
X006071
X005817
X005563
X005309
X005055
X004801
X004547
X004293
X004039
Y00534
X004293
X004547
X004801
X005055
X005309
X005563
X005817
X006071
X006325
X006579
X006833
X007087
X007341
X007595
X007849
X003785
X003531
Y005086
X003785
X003881Y011633
X003631
X004131
X004381
X004631
Y012266
X004381
X004131
X003881
X003631
T04
X011976Y00555
Y005804
Y006058
Y006312
Y006566
Y00682
Y007074
Y007328
Y007582
Y007836
X009436
Y007582
Y007328
Y007074
Y00682
Y006566
Y006312
Y006058
Y005804
Y00555
Y00809
Y008344
Y008598
Y008852
Y009106
Y00936
Y009614
Y009868
Y010122
X011976
Y009868
Y009614
Y00936
Y009106
Y008852
Y008598
Y008344
Y00809
T05
X002972Y010178
Y010528
X008674
Y010178
T06
X014249Y012243
X015419
T07
X014609Y012243
X015059
T08
X008844Y005213
Y007513
X003044
Y005213
M30
