%TF.GenerationSoftware,Altium Limited,Altium Designer,25.1.2 (22)*%
G04 Layer_Color=0*
%FSLAX45Y45*%
%MOMM*%
%TF.SameCoordinates,50AF8CB0-8788-4631-97D4-B92DF93AA5B5*%
%TF.FilePolarity,Positive*%
%TF.FileFunction,Plated,1,4,PTH,Drill*%
%TF.Part,Single*%
G01*
G75*
%TA.AperFunction,ComponentDrill*%
%ADD79C,0.70000*%
%ADD82C,0.90000*%
%ADD83C,0.70000*%
%ADD84C,0.90000*%
%ADD85C,1.04000*%
%ADD86C,1.00000*%
%ADD87C,1.20000*%
D79*
X13347701Y12026900D02*
D03*
X12839700D02*
D03*
Y11620500D02*
D03*
X13347701D02*
D03*
X6057900Y12026900D02*
D03*
X6565900D02*
D03*
X6057900Y11620500D02*
D03*
X6565900D02*
D03*
X10820400Y12039600D02*
D03*
X11328400D02*
D03*
X10820400Y11633200D02*
D03*
X11328400D02*
D03*
X8534400Y12039600D02*
D03*
X9042400D02*
D03*
X8534400Y11633200D02*
D03*
X9042400D02*
D03*
D82*
X15265401Y8051800D02*
D03*
Y8305800D02*
D03*
X5588000Y11480800D02*
D03*
Y11734800D02*
D03*
Y11988800D02*
D03*
Y12242800D02*
D03*
Y12496800D02*
D03*
X5245100Y11480800D02*
D03*
Y11734800D02*
D03*
Y11988800D02*
D03*
Y12242800D02*
D03*
Y12496800D02*
D03*
X14427200Y8686800D02*
D03*
Y8432800D02*
D03*
Y8178800D02*
D03*
Y7924800D02*
D03*
D83*
X14566901Y5537200D02*
D03*
Y6045200D02*
D03*
Y6451600D02*
D03*
Y6959600D02*
D03*
X15024100Y5537200D02*
D03*
Y6045200D02*
D03*
Y6451600D02*
D03*
Y6959600D02*
D03*
D84*
X14389101Y4991100D02*
D03*
X14643100D02*
D03*
X15011400Y4978400D02*
D03*
X15265401D02*
D03*
X12407900Y5207000D02*
D03*
Y5461000D02*
D03*
Y5715000D02*
D03*
Y5969000D02*
D03*
Y6223000D02*
D03*
Y6477000D02*
D03*
Y6731000D02*
D03*
Y6985000D02*
D03*
Y7239000D02*
D03*
Y7493000D02*
D03*
Y7747000D02*
D03*
Y8001000D02*
D03*
Y8255000D02*
D03*
Y8509000D02*
D03*
Y8763000D02*
D03*
X13931900D02*
D03*
Y8509000D02*
D03*
Y8255000D02*
D03*
Y8001000D02*
D03*
Y7747000D02*
D03*
Y7493000D02*
D03*
Y7239000D02*
D03*
Y6985000D02*
D03*
Y6731000D02*
D03*
Y6477000D02*
D03*
Y6223000D02*
D03*
Y5969000D02*
D03*
Y5715000D02*
D03*
Y5461000D02*
D03*
Y5207000D02*
D03*
X13995399Y12395200D02*
D03*
X13741400D02*
D03*
X13487399D02*
D03*
X13233400D02*
D03*
X12979401D02*
D03*
X12725400D02*
D03*
X12471400D02*
D03*
X12217400D02*
D03*
X11938000D02*
D03*
X11684000D02*
D03*
X11430000D02*
D03*
X11176000D02*
D03*
X10922000D02*
D03*
X10668000D02*
D03*
X10414000D02*
D03*
X10160000D02*
D03*
X9829800D02*
D03*
X9575800D02*
D03*
X9321800D02*
D03*
X9067800D02*
D03*
X8813800D02*
D03*
X8559800D02*
D03*
X8305800D02*
D03*
X8051800D02*
D03*
X7772400D02*
D03*
X7518400D02*
D03*
X7264400D02*
D03*
X7010400D02*
D03*
X6756400D02*
D03*
X6502400D02*
D03*
X6248400D02*
D03*
X5994400D02*
D03*
X14566901Y7366000D02*
D03*
X14820900D02*
D03*
X15074899D02*
D03*
D85*
X11976100Y5549900D02*
D03*
Y5803900D02*
D03*
Y10121900D02*
D03*
Y6057900D02*
D03*
Y6311900D02*
D03*
Y6565900D02*
D03*
Y6819900D02*
D03*
Y7073900D02*
D03*
Y7327900D02*
D03*
Y7581900D02*
D03*
Y7835900D02*
D03*
Y8089900D02*
D03*
Y8343900D02*
D03*
Y8597900D02*
D03*
Y8851900D02*
D03*
Y9105900D02*
D03*
Y9359900D02*
D03*
Y9613900D02*
D03*
Y9867900D02*
D03*
X9436100Y5549900D02*
D03*
Y5803900D02*
D03*
Y6057900D02*
D03*
Y6311900D02*
D03*
Y6565900D02*
D03*
Y6819900D02*
D03*
Y7073900D02*
D03*
Y7327900D02*
D03*
Y7581900D02*
D03*
Y7835900D02*
D03*
Y8089900D02*
D03*
Y8343900D02*
D03*
Y8597900D02*
D03*
Y8851900D02*
D03*
Y9105900D02*
D03*
Y9359900D02*
D03*
Y9613900D02*
D03*
Y9867900D02*
D03*
Y10121900D02*
D03*
D86*
X4131500Y12266300D02*
D03*
X3881500D02*
D03*
X4381500D02*
D03*
X4631500D02*
D03*
X3631500D02*
D03*
X4131500Y11633200D02*
D03*
X3881500D02*
D03*
X4381500D02*
D03*
X4631500D02*
D03*
X3631500D02*
D03*
X3530600Y5085700D02*
D03*
Y5339700D02*
D03*
X3784600Y5085700D02*
D03*
Y5339700D02*
D03*
X4038600Y5085700D02*
D03*
Y5339700D02*
D03*
X4292600Y5085700D02*
D03*
Y5339700D02*
D03*
X4546600Y5085700D02*
D03*
Y5339700D02*
D03*
X4800600Y5085700D02*
D03*
Y5339700D02*
D03*
X5054600Y5085700D02*
D03*
Y5339700D02*
D03*
X5308600Y5085700D02*
D03*
Y5339700D02*
D03*
X5562600Y5085700D02*
D03*
Y5339700D02*
D03*
X5816600Y5085700D02*
D03*
Y5339700D02*
D03*
X6070600Y5085700D02*
D03*
Y5339700D02*
D03*
X6324600Y5085700D02*
D03*
Y5339700D02*
D03*
X6578600Y5085700D02*
D03*
Y5339700D02*
D03*
X6832600Y5085700D02*
D03*
Y5339700D02*
D03*
X7086600Y5085700D02*
D03*
Y5339700D02*
D03*
X7340600Y5085700D02*
D03*
Y5339700D02*
D03*
X7594600Y5085700D02*
D03*
Y5339700D02*
D03*
X7848600Y5085700D02*
D03*
Y5339700D02*
D03*
X8102600Y5085700D02*
D03*
Y5339700D02*
D03*
X8356600Y5085700D02*
D03*
Y5339700D02*
D03*
D87*
X8674100Y10178300D02*
D03*
Y10528300D02*
D03*
X2971800Y10178300D02*
D03*
Y10528300D02*
D03*
%TF.MD5,98fe1489603076e1d3c6b2f205fa9c4e*%
M02*
