%TF.GenerationSoftware,Altium Limited,Altium Designer,25.1.2 (22)*%
G04 Layer_Physical_Order=1*
G04 Layer_Color=255*
%FSLAX45Y45*%
%MOMM*%
%TF.SameCoordinates,50AF8CB0-8788-4631-97D4-B92DF93AA5B5*%
%TF.FilePolarity,Positive*%
%TF.FileFunction,Copper,L1,Top,Signal*%
%TF.Part,Single*%
G01*
G75*
%TA.AperFunction,NonConductor*%
%ADD10C,0.30000*%
%TA.AperFunction,SMDPad,CuDef*%
%ADD11R,0.80000X1.20000*%
%ADD12R,0.40000X0.46000*%
%ADD13R,1.70000X0.60000*%
%ADD14R,2.80000X1.00000*%
%ADD15R,0.20000X0.20000*%
%TA.AperFunction,ConnectorPad*%
%ADD16R,1.20000X2.30000*%
%TA.AperFunction,SMDPad,CuDef*%
%ADD17R,0.97000X1.38000*%
%ADD18R,1.38000X0.97000*%
G04:AMPARAMS|DCode=19|XSize=1.61mm|YSize=0.59mm|CornerRadius=0.07375mm|HoleSize=0mm|Usage=FLASHONLY|Rotation=0.000|XOffset=0mm|YOffset=0mm|HoleType=Round|Shape=RoundedRectangle|*
%AMROUNDEDRECTD19*
21,1,1.61000,0.44250,0,0,0.0*
21,1,1.46250,0.59000,0,0,0.0*
1,1,0.14750,0.73125,-0.22125*
1,1,0.14750,-0.73125,-0.22125*
1,1,0.14750,-0.73125,0.22125*
1,1,0.14750,0.73125,0.22125*
%
%ADD19ROUNDEDRECTD19*%
%ADD20R,5.00000X5.00000*%
%TA.AperFunction,Conductor*%
%ADD21C,0.25400*%
%ADD22C,3.00000*%
%TA.AperFunction,ComponentPad*%
%ADD23R,1.50000X1.50000*%
%ADD24C,1.50000*%
%ADD25C,1.20000*%
%ADD26R,1.50000X1.50000*%
%ADD27C,0.70000*%
%ADD28C,1.10000*%
%ADD29R,1.56000X1.56000*%
%ADD30C,1.56000*%
%ADD31C,1.80000*%
%ADD32R,1.80000X1.80000*%
%ADD33C,1.50800*%
%ADD34R,1.50800X1.50800*%
%ADD35C,2.75000*%
%ADD36R,1.80000X1.80000*%
D10*
X14298599Y12332800D02*
G03*
X14248599Y12382800I-50000J0D01*
G01*
D02*
G03*
X14198599Y12332800I0J-50000D01*
G01*
Y12152800D02*
G03*
X14248599Y12102800I50000J0D01*
G01*
D02*
G03*
X14298599Y12152800I0J50000D01*
G01*
X15468600Y12332800D02*
G03*
X15418600Y12382800I-50000J0D01*
G01*
D02*
G03*
X15368600Y12332800I0J-50000D01*
G01*
Y12152800D02*
G03*
X15418600Y12102800I50000J0D01*
G01*
D02*
G03*
X15468600Y12152800I0J50000D01*
G01*
X14298599D02*
Y12332800D01*
X14198599Y12152800D02*
Y12332800D01*
X15468600Y12152800D02*
Y12332800D01*
X15368600Y12152800D02*
Y12332800D01*
D11*
X12242800Y11531600D02*
D03*
X12496800D02*
D03*
X12242800Y12146600D02*
D03*
X12496800D02*
D03*
X10477500Y12156600D02*
D03*
X10223500D02*
D03*
X10477500Y11541600D02*
D03*
X10223500D02*
D03*
X8242300Y12156600D02*
D03*
X7988300D02*
D03*
X8242300Y11541600D02*
D03*
X7988300D02*
D03*
D12*
X13906500Y11518900D02*
D03*
X13806500D02*
D03*
X11874500Y11480800D02*
D03*
X11774500D02*
D03*
X14947900Y8077200D02*
D03*
X14847900D02*
D03*
X9474200Y11471100D02*
D03*
X9374200D02*
D03*
D13*
X14211301Y10558700D02*
D03*
Y10683700D02*
D03*
Y11183700D02*
D03*
Y11058700D02*
D03*
Y10933700D02*
D03*
Y10808700D02*
D03*
X14986000D02*
D03*
Y10933700D02*
D03*
Y11058700D02*
D03*
Y11183700D02*
D03*
Y10683700D02*
D03*
Y10558700D02*
D03*
X14211301Y9374600D02*
D03*
Y9499600D02*
D03*
Y9999600D02*
D03*
Y9874600D02*
D03*
Y9749600D02*
D03*
Y9624600D02*
D03*
X14986000Y9374600D02*
D03*
Y9499600D02*
D03*
Y9999600D02*
D03*
Y9874600D02*
D03*
Y9749600D02*
D03*
Y9624600D02*
D03*
D14*
X14546300Y11368700D02*
D03*
Y10373700D02*
D03*
X15321001D02*
D03*
Y11368700D02*
D03*
X14546300Y10184600D02*
D03*
Y9189600D02*
D03*
X15321001Y10184600D02*
D03*
Y9189600D02*
D03*
D15*
X14248599Y12102800D02*
D03*
X15418600D02*
D03*
D16*
X15183600Y11967800D02*
D03*
X14933600D02*
D03*
X14733600D02*
D03*
X14483600D02*
D03*
D17*
X12289500Y11328400D02*
D03*
X12475500D02*
D03*
X10270200Y11341100D02*
D03*
X10456200D02*
D03*
X8022300Y11328400D02*
D03*
X8208300D02*
D03*
D18*
X13868401Y11667200D02*
D03*
Y11853200D02*
D03*
X11823700Y11815100D02*
D03*
Y11629100D02*
D03*
X14884399Y8225500D02*
D03*
Y8411500D02*
D03*
X9423400Y11616400D02*
D03*
Y11802400D02*
D03*
X5588000Y11258700D02*
D03*
Y11072700D02*
D03*
X5841800Y11258700D02*
D03*
Y11072700D02*
D03*
D19*
X6375400Y11252200D02*
D03*
Y11062200D02*
D03*
X6146400D02*
D03*
Y11157200D02*
D03*
Y11252200D02*
D03*
D20*
X2844800Y11290300D02*
D03*
Y12319000D02*
D03*
D21*
X9716700Y8317300D02*
Y12414247D01*
Y8317300D02*
X11722100Y6311900D01*
X11976100D01*
X9665900Y8296258D02*
X11879269Y6082889D01*
X9067800Y12395200D02*
X9665900Y11797100D01*
Y8296258D02*
Y11797100D01*
X14884399Y8411500D02*
Y8914400D01*
X14862900Y8935900D02*
X14884399Y8914400D01*
X14862900Y8935900D02*
Y9403000D01*
X14266299Y9999600D02*
X14862900Y9403000D01*
X14211301Y9999600D02*
X14266299D01*
X14724400Y7727382D02*
Y9416500D01*
X14266299Y9874600D02*
X14724400Y9416500D01*
X14262100Y7265082D02*
X14724400Y7727382D01*
X10046900Y8495100D02*
Y8605416D01*
X14156300Y10933700D02*
X14211301D01*
X13081595Y9858995D02*
X14156300Y10933700D01*
X13081595Y9617856D02*
Y9858995D01*
X12279800Y8816061D02*
X13081595Y9617856D01*
X12279800Y8229410D02*
Y8816061D01*
X12024190Y7973800D02*
X12279800Y8229410D01*
X11949810Y7973800D02*
X12024190D01*
X11860000Y7883990D02*
X11949810Y7973800D01*
X11860000Y7533810D02*
Y7883990D01*
Y7533810D02*
X11938910Y7454900D01*
X12013290D01*
X12092200Y7375990D01*
Y7193832D02*
Y7375990D01*
Y7193832D02*
X12143000Y7143032D01*
Y6496768D02*
Y7143032D01*
X12127216Y6480984D02*
X12143000Y6496768D01*
X12127216Y6396816D02*
Y6480984D01*
Y6396816D02*
X12143000Y6381032D01*
Y6242768D02*
Y6381032D01*
X12127216Y6226984D02*
X12143000Y6242768D01*
X12127216Y6142816D02*
Y6226984D01*
Y6142816D02*
X12143000Y6127032D01*
Y5988768D02*
Y6127032D01*
X12091295Y5937063D02*
X12143000Y5988768D01*
X12091295Y5852895D02*
Y5937063D01*
Y5852895D02*
X12092200Y5851990D01*
Y5755810D02*
Y5851990D01*
X12024190Y5687800D02*
X12092200Y5755810D01*
X11059865Y5687800D02*
X12024190D01*
X10435765Y6311900D02*
X11059865Y5687800D01*
X9436100Y6311900D02*
X10435765D01*
X11809200Y8087190D02*
X11949810Y8227800D01*
X11976100Y7835900D02*
X12244600Y7567400D01*
X12177964Y5697890D02*
X12244600Y5764526D01*
X12127164Y5718932D02*
X12193800Y5785568D01*
Y7164074D01*
X12151995Y8760098D02*
X12279800Y8887902D01*
X12151995Y8355605D02*
Y8760098D01*
X12024190Y8227800D02*
X12151995Y8355605D01*
X11949810Y8227800D02*
X12024190D01*
X12244600Y5764526D02*
Y7567400D01*
X12143000Y7214874D02*
X12193800Y7164074D01*
X12143000Y7214874D02*
Y7415000D01*
X12177964Y5255775D02*
Y5697890D01*
X12127164Y5234733D02*
Y5718932D01*
X12279800Y8887902D02*
Y9182200D01*
X12065000Y6490610D02*
X12092200Y6517810D01*
X12065000Y6387190D02*
Y6490610D01*
Y6387190D02*
X12092200Y6359990D01*
Y6517810D02*
Y7121990D01*
Y6263810D02*
Y6359990D01*
Y6009810D02*
Y6105990D01*
X12065000Y6133190D02*
Y6236610D01*
Y6133190D02*
X12092200Y6105990D01*
X12065000Y6236610D02*
X12092200Y6263810D01*
X12002390Y7211800D02*
X12092200Y7121990D01*
X11976100Y7581900D02*
X12143000Y7415000D01*
X12024190Y5941800D02*
X12092200Y6009810D01*
X11059865Y5941800D02*
X12024190D01*
X10435765Y6565900D02*
X11059865Y5941800D01*
X7405300Y12508300D02*
X7518400Y12395200D01*
X7217552Y12508300D02*
X7405300D01*
X7137400Y12428148D02*
X7217552Y12508300D01*
X7137400Y12362252D02*
Y12428148D01*
X7057248Y12282100D02*
X7137400Y12362252D01*
X6963552Y12282100D02*
X7057248D01*
X6897300Y12348352D02*
X6963552Y12282100D01*
X6897300Y12348352D02*
Y12442048D01*
X7115952Y12660700D01*
X13158400D01*
X13296899Y12522200D01*
Y12496800D02*
Y12522200D01*
Y12496800D02*
X13346500Y12447200D01*
Y12348352D02*
Y12447200D01*
X13280247Y12282100D02*
X13346500Y12348352D01*
X12932552Y12282100D02*
X13280247D01*
X12866299Y12348352D02*
X12932552Y12282100D01*
X12866299Y12348352D02*
Y12358300D01*
X12852400Y12372200D02*
X12866299Y12358300D01*
X12852400Y12372200D02*
Y12428147D01*
X12772247Y12508300D02*
X12852400Y12428147D01*
X11637152Y12508300D02*
X12772247D01*
X11543100Y12414248D02*
X11637152Y12508300D01*
X11543100Y12115566D02*
Y12414248D01*
X11230300Y11802766D02*
X11543100Y12115566D01*
X11230300Y11352903D02*
Y11802766D01*
Y11352903D02*
X11976100Y10607103D01*
Y10121900D02*
Y10607103D01*
X7010400Y12395200D02*
X7174300Y12559100D01*
X8928069D01*
X9207531D02*
X9869782D01*
X9186489Y12508300D02*
X9622647D01*
X9156731Y12609900D02*
X9207531Y12559100D01*
X8978869Y12609900D02*
X9156731D01*
X8928069Y12559100D02*
X8978869Y12609900D01*
X9869782Y12559100D02*
X9996100Y12432782D01*
X7631500Y12458182D02*
X7681618Y12508300D01*
X8999911Y12559100D02*
X9135689D01*
X7681618Y12508300D02*
X8949111D01*
X8999911Y12559100D01*
X9135689D02*
X9186489Y12508300D01*
X9622647D02*
X9716700Y12414247D01*
X10163952Y12559100D02*
X12975449D01*
X10046900Y12442048D02*
X10163952Y12559100D01*
X13214352Y12376152D02*
X13233400Y12395200D01*
X12975449Y12559100D02*
X13120300Y12414248D01*
X13214352D02*
X13233400Y12395200D01*
X13120300Y12414248D02*
X13214352D01*
X12264100Y11815100D02*
X12449500Y11629700D01*
X11823700Y11815100D02*
X12264100D01*
X12449500Y11629700D02*
X12691766D01*
X12863666Y11457800D01*
X14701082D01*
X12362500Y12026900D02*
X12839700D01*
X12797154Y12208180D02*
X12978435Y12026900D01*
X10046900Y8677258D02*
Y12442048D01*
X10959134Y12039600D02*
X11328400D01*
X10784204Y12214530D02*
X10959134Y12039600D01*
X10594670Y12214530D02*
X10784204D01*
X10414000Y12395200D02*
X10594670Y12214530D01*
X10145400Y8650600D02*
Y12232382D01*
X10206848Y12282100D02*
X10273300Y12348552D01*
X10195118Y12282100D02*
X10206848D01*
X9996100Y8656217D02*
Y12432782D01*
X10273300Y12348552D02*
Y12414448D01*
X10145400Y12232382D02*
X10195118Y12282100D01*
X10273300Y12414448D02*
X10367152Y12508300D01*
X10968848D01*
X10223500Y12156600D02*
X10323618D01*
X10440618Y12039600D01*
X10820400D01*
X10968848Y12508300D02*
X11062900Y12414248D01*
X10270200Y10049800D02*
X11976100Y8343900D01*
X13158160Y8170420D02*
X13878841Y8891099D01*
X12279800Y9182200D02*
X14156300Y11058700D01*
X13158160Y5957261D02*
Y8170420D01*
X11809200Y7330610D02*
Y8087190D01*
X14156300Y11058700D02*
X14211301D01*
X11809200Y7330610D02*
X11928010Y7211800D01*
X12002390D01*
X9436100Y6565900D02*
X10435765D01*
X10270200Y10049800D02*
Y11341100D01*
X11976100Y9105900D02*
X12289500Y9419300D01*
Y11328400D01*
X12253700Y11292600D02*
X12289500Y11328400D01*
X11879269Y6082889D02*
X11951111D01*
X11976100Y6057900D01*
X12177964Y5255775D02*
X12354839Y5078900D01*
X12127164Y5234733D02*
X12333798Y5028100D01*
X14701082Y11457800D02*
X14807890Y11350991D01*
Y11306809D02*
Y11350991D01*
Y11306809D02*
X14931000Y11183700D01*
X14986000D01*
Y11058700D02*
Y11183700D01*
Y9749600D02*
X15041000D01*
X15142900Y9647700D01*
Y9123818D02*
Y9647700D01*
Y9123818D02*
X15429300Y8837418D01*
Y6909886D02*
Y8837418D01*
X15378500Y6859086D02*
X15429300Y6909886D01*
X15378500Y4931552D02*
Y6859086D01*
X15312248Y4865300D02*
X15378500Y4931552D01*
X14311018Y4865300D02*
X15312248D01*
X14260217Y4916100D02*
X14311018Y4865300D01*
X7857687Y4916100D02*
X14260217D01*
X7708100Y5065687D02*
X7857687Y4916100D01*
X7614613Y5065687D02*
X7708100D01*
X7594600Y5085700D02*
X7614613Y5065687D01*
X14239175Y4865300D02*
X14289977Y4814500D01*
X15429300Y4910511D02*
Y4982352D01*
X15499100Y5052152D01*
X7561000Y4865300D02*
X14239175D01*
X15333289Y4814500D02*
X15429300Y4910511D01*
X14289977Y4814500D02*
X15333289D01*
X15499100Y5052152D02*
Y9416500D01*
X15041000Y9874600D02*
X15499100Y9416500D01*
X7340600Y5085700D02*
X7561000Y4865300D01*
X14986000Y9874600D02*
X15041000D01*
X13931900Y5207000D02*
X14194775Y5469876D01*
Y7269600D01*
X14233220Y7308044D01*
Y7890768D01*
X14380351Y8037900D01*
X14446248D01*
X14540300Y8131952D01*
Y8876720D01*
X14088200Y9328820D02*
X14540300Y8876720D01*
X14088200Y9328820D02*
Y9670381D01*
X14139000Y9721181D01*
Y9732300D01*
X14156300Y9749600D01*
X14211301D01*
X14110800Y5080177D02*
Y5152018D01*
X13803799Y5101218D02*
Y5332900D01*
X13931900Y5461000D01*
X14160500Y8891099D02*
Y9184678D01*
X14037399Y9307778D02*
X14160500Y9184678D01*
X14037399Y9307778D02*
Y9691423D01*
X14363699Y5472734D02*
X14566901Y5675934D01*
X14312900Y5444316D02*
Y6336334D01*
X14281973Y5413390D02*
X14312900Y5444316D01*
Y6336334D02*
X14526266Y6549700D01*
X14281973Y5323192D02*
Y5413390D01*
X13733235Y5028100D02*
X13784035Y4977300D01*
X14079765D01*
X14161600Y5059135D01*
X12333798Y5028100D02*
X13733235D01*
X14161600Y5130977D02*
X14332774Y5302150D01*
X14058723Y5028100D02*
X14110800Y5080177D01*
X13805077Y5028100D02*
X14058723D01*
X13754277Y5078900D02*
X13805077Y5028100D01*
X14110800Y5152018D02*
X14281973Y5323192D01*
X12354839Y5078900D02*
X13754277D01*
X14088200Y9742223D02*
Y9931500D01*
X13803799Y5101218D02*
X13826118Y5078900D01*
X14037682D01*
X14060001Y5101218D01*
X14363699Y5423274D02*
Y5472734D01*
X13878841Y8891099D02*
X14160500D01*
X14332774Y5302150D02*
Y5392348D01*
X14363699Y5423274D01*
X14037399Y9691423D02*
X14088200Y9742223D01*
X14160500Y8891099D02*
X14222900D01*
X14262100Y5465358D02*
Y7265082D01*
X14060001Y5263258D02*
X14262100Y5465358D01*
X14060001Y5101218D02*
Y5263258D01*
X14161600Y5059135D02*
Y5130977D01*
X14182420Y7743520D02*
Y7934020D01*
X13931900Y7493000D02*
X14182420Y7743520D01*
Y7934020D02*
X14427200Y8178800D01*
X13931900Y7755342D02*
X14182420Y8005862D01*
Y8188020D01*
X14526266Y6549700D02*
X14607533D01*
X14806767Y6262533D02*
Y6350468D01*
X14211301Y9874600D02*
X14266299D01*
X14607533Y6549700D02*
X14806767Y6350468D01*
X14088200Y9931500D02*
X14156300Y9999600D01*
X14211301D01*
X13847900Y11853200D02*
X13868401D01*
X13615199Y11620500D02*
X13847900Y11853200D01*
X13347701Y11620500D02*
X13615199D01*
X13741400Y11959700D02*
X13847900Y11853200D01*
X13741400Y11959700D02*
Y12395200D01*
X9042400Y11633200D02*
X9211600Y11802400D01*
X9423400D01*
X9374200Y11471100D02*
Y11474100D01*
X9423400Y11523300D01*
Y11616400D01*
X11684000Y11934300D02*
X11803200Y11815100D01*
X11684000Y11934300D02*
Y12395200D01*
X11774500Y11480800D02*
Y11483800D01*
X11823700Y11533000D01*
Y11629100D01*
X11621300Y11633200D02*
X11803200Y11815100D01*
X11328400Y11633200D02*
X11621300D01*
X11951111Y6844889D02*
X11976100Y6819900D01*
X11879269Y6844889D02*
X11951111D01*
X10046900Y8677258D02*
X11879269Y6844889D01*
X9996100Y8656217D02*
X10046900Y8605416D01*
X10145400Y8650600D02*
X11722100Y7073900D01*
X11976100D01*
X12471400Y12395200D02*
X12658420Y12208180D01*
X12797154D01*
X12978435Y12026900D02*
X13347701D01*
X14483600Y11967800D02*
Y12002400D01*
X14436301Y12049700D02*
X14483600Y12002400D01*
X14086900Y12049700D02*
X14436301D01*
X13741400Y12395200D02*
X14086900Y12049700D01*
X12496800Y11349700D02*
Y11531600D01*
X12475500Y11328400D02*
X12496800Y11349700D01*
X12839700Y11620500D02*
Y12026900D01*
X12290100Y12099300D02*
X12362500Y12026900D01*
X12270100Y12099300D02*
X12290100D01*
X12242800Y12126600D02*
X12270100Y12099300D01*
X12242800Y12126600D02*
Y12146600D01*
X11062900Y12414248D02*
X11156952D01*
X11176000Y12395200D01*
X10456200Y11341100D02*
X10477500Y11362400D01*
Y11541600D01*
X9140500Y11731300D02*
Y11811482D01*
X9067800Y11926266D02*
X9140500Y11998966D01*
X9067800Y11884182D02*
Y11926266D01*
Y11884182D02*
X9140500Y11811482D01*
Y11998966D02*
Y12080234D01*
X9042400Y11633200D02*
X9140500Y11731300D01*
X9042400Y8827410D02*
Y11633200D01*
X8954700Y12266034D02*
X9140500Y12080234D01*
X10046900Y8495100D02*
X11976100Y6565900D01*
X8954700Y12266034D02*
Y12442048D01*
X9020952Y12508300D01*
X9114648D01*
X9194800Y12428148D01*
Y12362253D02*
Y12428148D01*
Y12362253D02*
X9274952Y12282100D01*
X9368648D01*
X9462700Y12376152D01*
X9556752D01*
X9575800Y12395200D01*
X7631500Y12348352D02*
Y12458182D01*
X6435825Y11152677D02*
X7631500Y12348352D01*
X6375400Y11062200D02*
X6419025D01*
X6435825Y11079000D02*
Y11152677D01*
X6419025Y11062200D02*
X6435825Y11079000D01*
X6331775Y11062200D02*
X6375400D01*
X8451441Y10984841D02*
X8926933Y10509349D01*
X8022300Y11307900D02*
X8345359Y10984841D01*
X8926933Y8853067D02*
Y10509349D01*
X8345359Y10984841D02*
X8451441D01*
X8317534Y12395200D02*
X8673134Y12039600D01*
X9042400D01*
X9388010Y8481800D02*
X9462390D01*
X9042400Y8827410D02*
X9388010Y8481800D01*
X9462390D02*
X9552200Y8391990D01*
X9473290Y8216900D02*
X9552200Y8295810D01*
Y8391990D01*
X9320000Y8137990D02*
X9398910Y8216900D01*
X9473290D01*
X9320000Y6009810D02*
Y8137990D01*
X6057900Y11620500D02*
Y12026900D01*
Y11620500D02*
X6314975Y11363425D01*
Y11269000D02*
Y11363425D01*
Y11269000D02*
X6331775Y11252200D01*
X6375400D01*
X6314975Y11079000D02*
X6331775Y11062200D01*
X6314975Y11079000D02*
Y11148186D01*
X6238361Y11224800D02*
X6314975Y11148186D01*
X6224800Y11224800D02*
X6238361D01*
X6197400Y11252200D02*
X6224800Y11224800D01*
X6146400Y11252200D02*
X6197400D01*
X5588000Y11258700D02*
X5608500D01*
X5701100Y11351300D01*
Y11527648D01*
X5607048Y11621700D02*
X5701100Y11527648D01*
X5607048Y11621700D02*
Y11715752D01*
X5588000Y11734800D02*
X5607048Y11715752D01*
X5841800Y11072700D02*
X5841800Y11072700D01*
X5588000Y11072700D02*
X5841800D01*
X5852300Y11062200D02*
X6146400D01*
X5841800Y11072700D02*
X5852300Y11062200D01*
X8022300Y11307900D02*
Y11328400D01*
X6418449Y12174351D02*
X6565900Y12026900D01*
X6248400Y12395200D02*
X6418449Y12225151D01*
Y12174351D02*
Y12225151D01*
X6950380Y12004980D02*
X7128180D01*
X6565900Y11620500D02*
X6950380Y12004980D01*
X7128180D02*
X7518400Y12395200D01*
X8926933Y8853067D02*
X9436100Y8343900D01*
X9473290Y5930900D02*
X9552200Y5851990D01*
X9398910Y5930900D02*
X9473290D01*
X9320000Y6009810D02*
X9398910Y5930900D01*
X8208300Y11328400D02*
X8242300Y11362400D01*
Y11541600D01*
X7988300Y12136600D02*
Y12156600D01*
Y12136600D02*
X8085300Y12039600D01*
X8534400D01*
Y11633200D02*
Y12039600D01*
X8305800Y12395200D02*
X8317534D01*
X8356600Y5085700D02*
X8936900Y5666000D01*
X9462390D01*
X9552200Y5755810D01*
Y5851990D01*
X14222900Y8891099D02*
X14427200Y8686800D01*
X12407900Y5207000D02*
X13158160Y5957261D01*
X14182420Y8188020D02*
X14427200Y8432800D01*
X13931900Y7747000D02*
Y7755342D01*
X14566901Y5675934D02*
Y6045200D01*
X14806767Y6262533D02*
X15024100Y6045200D01*
X14566901Y5537200D02*
X14664999Y5635300D01*
Y6353500D01*
X15024100Y6959600D02*
Y7162800D01*
X14820900Y7366000D02*
X15024100Y7162800D01*
X14566901Y6959600D02*
Y7366000D01*
Y6451600D02*
X14664999Y6353500D01*
X15024100Y5537200D02*
X15122200Y5635300D01*
Y6085834D01*
X15024100Y6183934D02*
X15122200Y6085834D01*
X15024100Y6183934D02*
Y6451600D01*
X15011400Y4978400D02*
X15024100Y4991100D01*
Y5537200D01*
X14389101Y4991100D02*
X14566901Y5168900D01*
Y5537200D01*
X5233200Y11746700D02*
X5245100Y11734800D01*
X4401100Y11746700D02*
X5233200D01*
X3881500Y12266300D02*
X4401100Y11746700D01*
X4498487Y11988800D02*
X5245100D01*
X4244981Y12242306D02*
X4498487Y11988800D01*
X4155494Y12242306D02*
X4244981D01*
X4131500Y12266300D02*
X4155494Y12242306D01*
X5155100Y12152800D02*
X5245100Y12242800D01*
X4495000Y12152800D02*
X5155100D01*
X4381500Y12266300D02*
X4495000Y12152800D01*
X5014600Y12266300D02*
X5245100Y12496800D01*
X4631500Y12266300D02*
X5014600D01*
X5568952Y11715752D02*
X5588000Y11734800D01*
X5568952Y11621700D02*
Y11715752D01*
X5474900Y11527648D02*
X5568952Y11621700D01*
X5474900Y11349785D02*
Y11527648D01*
X5340415Y11215300D02*
X5474900Y11349785D01*
X4299400Y11215300D02*
X5340415D01*
X3881500Y11633200D02*
X4299400Y11215300D01*
X4864100Y11518900D02*
X5066100Y11316900D01*
X5298331D01*
X4131500Y11633200D02*
X4498600Y11266100D01*
X5474900Y11599489D02*
Y11781648D01*
X5424100Y11548689D02*
X5474900Y11599489D01*
X4498600Y11266100D02*
X5319373D01*
X5424100Y11370827D02*
Y11548689D01*
X5319373Y11266100D02*
X5424100Y11370827D01*
X5358200Y11554631D02*
X5417745Y11614176D01*
X5358200Y11376769D02*
Y11554631D01*
X4874400Y11633200D02*
X4913700Y11593900D01*
X5298331Y11316900D02*
X5358200Y11376769D01*
X5360899Y11629172D02*
Y12087541D01*
X5325627Y11593900D02*
X5360899Y11629172D01*
X4913700Y11593900D02*
X5325627D01*
X5417745Y11614176D02*
Y11796335D01*
X5568952Y11969752D02*
X5588000Y11988800D01*
X5568952Y11875700D02*
Y11969752D01*
X5474900Y11781648D02*
X5568952Y11875700D01*
X5438574Y11817164D02*
Y12093374D01*
X5417745Y11796335D02*
X5438574Y11817164D01*
X5360899Y12087541D02*
X5429850Y12156492D01*
X5438574Y12093374D02*
X5588000Y12242800D01*
X4495800Y11518900D02*
X4864100D01*
X4381500Y11633200D02*
X4495800Y11518900D01*
X5429850Y12156492D02*
Y12244598D01*
X5525700Y12340448D01*
Y12434500D02*
X5588000Y12496800D01*
X5525700Y12340448D02*
Y12434500D01*
X4631500Y11633200D02*
X4874400D01*
X10820400D02*
Y12039600D01*
X4596287Y5803900D02*
X9436100D01*
X4152100Y5359713D02*
X4596287Y5803900D01*
X4058613Y5359713D02*
X4152100D01*
X4038600Y5339700D02*
X4058613Y5359713D01*
X14847900Y8077200D02*
Y8080200D01*
X14884399Y8116700D01*
Y8225500D01*
X13806500Y11518900D02*
Y11521900D01*
X13813800Y11529200D01*
X13816800D01*
X13868401Y11580800D01*
Y11667200D01*
D22*
X2844800Y10655300D02*
Y11290300D01*
Y10655300D02*
X2971800Y10528300D01*
D23*
X15265401Y8051800D02*
D03*
X5588000Y12496800D02*
D03*
X5245100D02*
D03*
X14427200Y8686800D02*
D03*
D24*
X15265401Y8305800D02*
D03*
X5588000Y11480800D02*
D03*
Y11734800D02*
D03*
Y11988800D02*
D03*
Y12242800D02*
D03*
X5245100Y11480800D02*
D03*
Y11734800D02*
D03*
Y11988800D02*
D03*
Y12242800D02*
D03*
X14643100Y4991100D02*
D03*
X15265401Y4978400D02*
D03*
X13741400Y12395200D02*
D03*
X13487399D02*
D03*
X13233400D02*
D03*
X12979401D02*
D03*
X12725400D02*
D03*
X12471400D02*
D03*
X12217400D02*
D03*
X11684000D02*
D03*
X11430000D02*
D03*
X11176000D02*
D03*
X10922000D02*
D03*
X10668000D02*
D03*
X10414000D02*
D03*
X10160000D02*
D03*
X9575800D02*
D03*
X9321800D02*
D03*
X9067800D02*
D03*
X8813800D02*
D03*
X8559800D02*
D03*
X8305800D02*
D03*
X8051800D02*
D03*
X7518400D02*
D03*
X7264400D02*
D03*
X7010400D02*
D03*
X6756400D02*
D03*
X6502400D02*
D03*
X6248400D02*
D03*
X5994400D02*
D03*
X14820900Y7366000D02*
D03*
X15074899D02*
D03*
X14427200Y8432800D02*
D03*
Y8178800D02*
D03*
Y7924800D02*
D03*
D25*
X13347701Y12026900D02*
D03*
X12839700D02*
D03*
Y11620500D02*
D03*
X13347701D02*
D03*
X6057900Y12026900D02*
D03*
X6565900D02*
D03*
X6057900Y11620500D02*
D03*
X6565900D02*
D03*
X10820400Y12039600D02*
D03*
X11328400D02*
D03*
X10820400Y11633200D02*
D03*
X11328400D02*
D03*
X14566901Y5537200D02*
D03*
Y6045200D02*
D03*
Y6451600D02*
D03*
Y6959600D02*
D03*
X15024100Y5537200D02*
D03*
Y6045200D02*
D03*
Y6451600D02*
D03*
Y6959600D02*
D03*
X8534400Y12039600D02*
D03*
X9042400D02*
D03*
X8534400Y11633200D02*
D03*
X9042400D02*
D03*
D26*
X14389101Y4991100D02*
D03*
X15011400Y4978400D02*
D03*
X13995399Y12395200D02*
D03*
X11938000D02*
D03*
X9829800D02*
D03*
X7772400D02*
D03*
X14566901Y7366000D02*
D03*
D27*
X14248599Y12242800D02*
D03*
X15418600D02*
D03*
D28*
X14608600D02*
D03*
X15058600D02*
D03*
D29*
X11976100Y5549900D02*
D03*
D30*
Y5803900D02*
D03*
Y10121900D02*
D03*
Y6057900D02*
D03*
Y6311900D02*
D03*
Y6565900D02*
D03*
Y6819900D02*
D03*
Y7073900D02*
D03*
Y7327900D02*
D03*
Y7581900D02*
D03*
Y7835900D02*
D03*
Y8089900D02*
D03*
Y8343900D02*
D03*
Y8597900D02*
D03*
Y8851900D02*
D03*
Y9105900D02*
D03*
Y9359900D02*
D03*
Y9613900D02*
D03*
Y9867900D02*
D03*
X9436100Y5549900D02*
D03*
Y5803900D02*
D03*
Y6057900D02*
D03*
Y6311900D02*
D03*
Y6565900D02*
D03*
Y6819900D02*
D03*
Y7073900D02*
D03*
Y7327900D02*
D03*
Y7581900D02*
D03*
Y7835900D02*
D03*
Y8089900D02*
D03*
Y8343900D02*
D03*
Y8597900D02*
D03*
Y8851900D02*
D03*
Y9105900D02*
D03*
Y9359900D02*
D03*
Y9613900D02*
D03*
Y9867900D02*
D03*
Y10121900D02*
D03*
D31*
X12407900Y5207000D02*
D03*
Y5461000D02*
D03*
Y5715000D02*
D03*
Y5969000D02*
D03*
Y6223000D02*
D03*
Y6477000D02*
D03*
Y6731000D02*
D03*
Y6985000D02*
D03*
Y7239000D02*
D03*
Y7493000D02*
D03*
Y7747000D02*
D03*
Y8001000D02*
D03*
Y8255000D02*
D03*
Y8509000D02*
D03*
Y8763000D02*
D03*
X13931900D02*
D03*
Y8509000D02*
D03*
Y8255000D02*
D03*
Y8001000D02*
D03*
Y7747000D02*
D03*
Y7493000D02*
D03*
Y7239000D02*
D03*
Y6985000D02*
D03*
Y6731000D02*
D03*
Y6477000D02*
D03*
Y6223000D02*
D03*
Y5969000D02*
D03*
Y5715000D02*
D03*
Y5461000D02*
D03*
X8674100Y10178300D02*
D03*
X2971800D02*
D03*
D32*
X13931900Y5207000D02*
D03*
D33*
X4131500Y12266300D02*
D03*
X3881500D02*
D03*
X4381500D02*
D03*
X3631500D02*
D03*
X4131500Y11633200D02*
D03*
X3881500D02*
D03*
X4381500D02*
D03*
X3631500D02*
D03*
X3530600Y5085700D02*
D03*
Y5339700D02*
D03*
X3784600Y5085700D02*
D03*
Y5339700D02*
D03*
X4038600Y5085700D02*
D03*
Y5339700D02*
D03*
X4292600Y5085700D02*
D03*
Y5339700D02*
D03*
X4546600Y5085700D02*
D03*
Y5339700D02*
D03*
X4800600Y5085700D02*
D03*
Y5339700D02*
D03*
X5054600Y5085700D02*
D03*
Y5339700D02*
D03*
X5308600Y5085700D02*
D03*
Y5339700D02*
D03*
X5562600Y5085700D02*
D03*
Y5339700D02*
D03*
X5816600Y5085700D02*
D03*
Y5339700D02*
D03*
X6070600Y5085700D02*
D03*
Y5339700D02*
D03*
X6324600Y5085700D02*
D03*
Y5339700D02*
D03*
X6578600Y5085700D02*
D03*
Y5339700D02*
D03*
X6832600Y5085700D02*
D03*
Y5339700D02*
D03*
X7086600Y5085700D02*
D03*
Y5339700D02*
D03*
X7340600Y5085700D02*
D03*
Y5339700D02*
D03*
X7594600Y5085700D02*
D03*
Y5339700D02*
D03*
X7848600Y5085700D02*
D03*
Y5339700D02*
D03*
X8102600Y5085700D02*
D03*
Y5339700D02*
D03*
X8356600Y5085700D02*
D03*
D34*
X4631500Y12266300D02*
D03*
Y11633200D02*
D03*
X8356600Y5339700D02*
D03*
D35*
X3043600Y5212700D02*
D03*
Y7512700D02*
D03*
X8843600Y5212700D02*
D03*
Y7512700D02*
D03*
D36*
X8674100Y10528300D02*
D03*
X2971800D02*
D03*
%TF.MD5,5f19e100f9b3b15c4e2cf4d90bf7287a*%
M02*
