%TF.GenerationSoftware,Altium Limited,Altium Designer,25.1.2 (22)*%
G04 Layer_Color=8421504*
%FSLAX45Y45*%
%MOMM*%
%TF.SameCoordinates,50AF8CB0-8788-4631-97D4-B92DF93AA5B5*%
%TF.FilePolarity,Positive*%
%TF.FileFunction,Paste,Top*%
%TF.Part,Single*%
G01*
G75*
%TA.AperFunction,NonConductor*%
%ADD10C,0.30000*%
%TA.AperFunction,SMDPad,CuDef*%
%ADD11R,0.80000X1.20000*%
%ADD12R,0.40000X0.46000*%
%ADD13R,1.70000X0.60000*%
%ADD14R,2.80000X1.00000*%
%TA.AperFunction,ConnectorPad*%
%ADD16R,1.20000X2.30000*%
%TA.AperFunction,SMDPad,CuDef*%
%ADD17R,0.97000X1.38000*%
%ADD18R,1.38000X0.97000*%
G04:AMPARAMS|DCode=19|XSize=1.61mm|YSize=0.59mm|CornerRadius=0.07375mm|HoleSize=0mm|Usage=FLASHONLY|Rotation=0.000|XOffset=0mm|YOffset=0mm|HoleType=Round|Shape=RoundedRectangle|*
%AMROUNDEDRECTD19*
21,1,1.61000,0.44250,0,0,0.0*
21,1,1.46250,0.59000,0,0,0.0*
1,1,0.14750,0.73125,-0.22125*
1,1,0.14750,-0.73125,-0.22125*
1,1,0.14750,-0.73125,0.22125*
1,1,0.14750,0.73125,0.22125*
%
%ADD19ROUNDEDRECTD19*%
%ADD20R,5.00000X5.00000*%
D10*
X14298599Y12332800D02*
G03*
X14248599Y12382800I-50000J0D01*
G01*
D02*
G03*
X14198599Y12332800I0J-50000D01*
G01*
Y12152800D02*
G03*
X14248599Y12102800I50000J0D01*
G01*
D02*
G03*
X14298599Y12152800I0J50000D01*
G01*
X15468600Y12332800D02*
G03*
X15418600Y12382800I-50000J0D01*
G01*
D02*
G03*
X15368600Y12332800I0J-50000D01*
G01*
Y12152800D02*
G03*
X15418600Y12102800I50000J0D01*
G01*
D02*
G03*
X15468600Y12152800I0J50000D01*
G01*
X14298599D02*
Y12332800D01*
X14198599Y12152800D02*
Y12332800D01*
X15468600Y12152800D02*
Y12332800D01*
X15368600Y12152800D02*
Y12332800D01*
D11*
X12242800Y11531600D02*
D03*
X12496800D02*
D03*
X12242800Y12146600D02*
D03*
X12496800D02*
D03*
X10477500Y12156600D02*
D03*
X10223500D02*
D03*
X10477500Y11541600D02*
D03*
X10223500D02*
D03*
X8242300Y12156600D02*
D03*
X7988300D02*
D03*
X8242300Y11541600D02*
D03*
X7988300D02*
D03*
D12*
X13906500Y11518900D02*
D03*
X13806500D02*
D03*
X11874500Y11480800D02*
D03*
X11774500D02*
D03*
X14947900Y8077200D02*
D03*
X14847900D02*
D03*
X9474200Y11471100D02*
D03*
X9374200D02*
D03*
D13*
X14211301Y10558700D02*
D03*
Y10683700D02*
D03*
Y11183700D02*
D03*
Y11058700D02*
D03*
Y10933700D02*
D03*
Y10808700D02*
D03*
X14986000D02*
D03*
Y10933700D02*
D03*
Y11058700D02*
D03*
Y11183700D02*
D03*
Y10683700D02*
D03*
Y10558700D02*
D03*
X14211301Y9374600D02*
D03*
Y9499600D02*
D03*
Y9999600D02*
D03*
Y9874600D02*
D03*
Y9749600D02*
D03*
Y9624600D02*
D03*
X14986000Y9374600D02*
D03*
Y9499600D02*
D03*
Y9999600D02*
D03*
Y9874600D02*
D03*
Y9749600D02*
D03*
Y9624600D02*
D03*
D14*
X14546300Y11368700D02*
D03*
Y10373700D02*
D03*
X15321001D02*
D03*
Y11368700D02*
D03*
X14546300Y10184600D02*
D03*
Y9189600D02*
D03*
X15321001Y10184600D02*
D03*
Y9189600D02*
D03*
D16*
X15183600Y11967800D02*
D03*
X14933600D02*
D03*
X14733600D02*
D03*
X14483600D02*
D03*
D17*
X12289500Y11328400D02*
D03*
X12475500D02*
D03*
X10270200Y11341100D02*
D03*
X10456200D02*
D03*
X8022300Y11328400D02*
D03*
X8208300D02*
D03*
D18*
X13868401Y11667200D02*
D03*
Y11853200D02*
D03*
X11823700Y11815100D02*
D03*
Y11629100D02*
D03*
X14884399Y8225500D02*
D03*
Y8411500D02*
D03*
X9423400Y11616400D02*
D03*
Y11802400D02*
D03*
X5588000Y11258700D02*
D03*
Y11072700D02*
D03*
X5841800Y11258700D02*
D03*
Y11072700D02*
D03*
D19*
X6375400Y11252200D02*
D03*
Y11062200D02*
D03*
X6146400D02*
D03*
Y11157200D02*
D03*
Y11252200D02*
D03*
D20*
X2844800Y11290300D02*
D03*
Y12319000D02*
D03*
%TF.MD5,dfb5592a49a6f19a7b32b4d62f54c620*%
M02*
